PathFileType	4	(X/Y/Z)	walk-thru1-4-TP.trc
DataRate	CameraRate	NumFrames	NumMarkers	Units	OrigDataRate	OrigDataStartFrame	OrigNumFrames
120.00	120.00	       4	60	mm	120.00	191	       508
Frame#	Time	Top.Head			Front.Head			Rear.Head			Jaw			C7			R.Clavicle			L.Clavicle			R.Shoulder			L.Shoulder			R.Scapula			L.Scapula			R.Scap.Inf			R.Biceps.Lateral			R.Elbow			R.Elbow.Medial			R.Forearm			R.Ulna			R.Radius			R.Wrist			R.Thumb.M1			R.Thumb.M2			R.Thumb.M3			R.Finger3.M1			R.Finger3.M2			R.Finger3.M3			L.Biceps.Lateral			L.Elbow			L.Elbow.Medial			L.Forearm			L.Ulna			L.Radius			L.Wrist			L.Thumb.M1			L.Thumb.M2			L.Thumb.M3			L.Finger3.M1			L.Finger3.M2			L.Finger3.M3			V.Sacral			R.ASIS			L.ASIS			R.Thigh			R.Thigh.Front			R.Knee			R.Knee.Medial			R.Shank			R.Ankle			R.Ankle.Medial			R.Heel			R.Toe			R.MedFoot			L.Thigh			L.Knee			L.Knee.Medial			L.Shank			L.Ankle			L.Ankle.Medial			L.Heel			L.Toe			L.MedFoot			V_mid_ASIS			V_R_Knee_JC			V_L_Knee_JC			V_R_Elbow_JC			V_L_Elbow_JC			V_R_Ankle_JC			V_L_Ankle_JC			V_R_Wrist_JC			V_L_Wrist_JC			V_R_ScaTrpz_1stMC_JC			V_R_1stMC_1stPP_JC			V_R_1stPP_1stDP_JC			V_R_LunCap_3rdMC_JC			V_R_3rdMC_3rdPP_JC			V_R_3rdPP_3rdMP_JC			V_R_3rdMP_3rdDP_JC			V_L_ScaTrpz_1stMC_JC			V_L_1stMC_1stPP_JC			V_L_1stPP_1stDP_JC			V_L_LunCap_3rdMC_JC			V_L_3rdMC_3rdPP_JC			V_L_3rdPP_3rdMP_JC			V_L_3rdMP_3rdPP_JC			V_ROOT_JC			V_R_Hip_JC			V_L_Hip_JC			V_R_GlenHum_JC			V_L_GlenHum_JC			V_ForeHead_Ctr			V_Vertex			V_Sagit_Lambdoid_Suture			V_R_FrontoTemp			V_L_FrontoTemporal			V_R_ParietalOccip			V_L_ParietalOcciptal			V_R_Temporal			V_L_Temporal			V_mid_FrontRearHead			V_mid_RLGlenHumCtrs			V_C7_vert			V_C1_vert			V_Mid_Hip			
		X1	Y1	Z1	X2	Y2	Z2	X3	Y3	Z3	X4	Y4	Z4	X5	Y5	Z5	X6	Y6	Z6	X7	Y7	Z7	X8	Y8	Z8	X9	Y9	Z9	X10	Y10	Z10	X11	Y11	Z11	X12	Y12	Z12	X13	Y13	Z13	X14	Y14	Z14	X15	Y15	Z15	X16	Y16	Z16	X17	Y17	Z17	X18	Y18	Z18	X19	Y19	Z19	X20	Y20	Z20	X21	Y21	Z21	X22	Y22	Z22	X23	Y23	Z23	X24	Y24	Z24	X25	Y25	Z25	X26	Y26	Z26	X27	Y27	Z27	X28	Y28	Z28	X29	Y29	Z29	X30	Y30	Z30	X31	Y31	Z31	X32	Y32	Z32	X33	Y33	Z33	X34	Y34	Z34	X35	Y35	Z35	X36	Y36	Z36	X37	Y37	Z37	X38	Y38	Z38	X39	Y39	Z39	X40	Y40	Z40	X41	Y41	Z41	X42	Y42	Z42	X43	Y43	Z43	X44	Y44	Z44	X45	Y45	Z45	X46	Y46	Z46	X47	Y47	Z47	X48	Y48	Z48	X49	Y49	Z49	X50	Y50	Z50	X51	Y51	Z51	X52	Y52	Z52	X53	Y53	Z53	X54	Y54	Z54	X55	Y55	Z55	X56	Y56	Z56	X57	Y57	Z57	X58	Y58	Z58	X59	Y59	Z59	X60	Y60	Z60	

191	1.583	-76.95251	124.72997	1754.29529	20.43097	99.47942	1632.97607	-207.93312	135.47891	1682.81519	-73.17012	106.95177	1458.85815	-303.93640	126.17557	1556.73938	-211.22816	-2.25336	1480.01587	-191.36906	243.72452	1460.63586	-272.79745	-103.82649	1473.47217	-232.94519	348.75327	1457.54590	-374.67261	31.84147	1470.40942	-367.38855	223.82097	1457.02795	-405.61691	28.36814	1380.34082	-319.70807	-136.11424	1336.62329	-396.47208	-163.13571	1158.60193	-381.43192	-67.38271	1146.21411	-306.03809	-173.07120	1089.34216	-370.35504	-173.01776	954.69592	-257.33987	-175.56039	921.15759	-263.56897	-222.02469	896.45892	-238.26003	-175.50444	877.89856	-225.39316	-155.60637	829.36371	-219.93991	-162.19139	777.62152	-241.98878	-244.66283	817.91968	-266.20712	-198.68849	755.73950	-287.99677	-146.68170	784.84125	-280.53976	383.17642	1311.89612	-330.53946	406.95053	1141.03906	-349.32007	316.89993	1110.55872	-241.62227	404.76660	1066.67139	-289.29980	435.41928	958.14746	-188.61835	413.58826	912.28625	-206.23874	456.29099	879.45648	-160.28979	414.89996	860.42108	-136.73340	390.96420	816.50580	-121.76865	395.39987	769.18835	-169.67375	472.07584	785.76959	-162.11111	443.20609	725.07855	-169.41731	383.81094	722.72339	-425.34589	112.75097	1104.87634	-236.72337	-81.57259	1047.16516	-231.10518	271.00781	1046.62354	-188.72891	-74.01978	680.42572	-90.51595	17.24699	604.78412	-122.05929	-44.95725	538.41345	-135.98138	67.21181	530.04010	-74.74603	-6.31402	327.73312	-124.70494	-44.77950	86.36542	-110.39526	58.10180	107.35068	-182.14839	5.25323	45.12550	42.37003	-0.46384	55.79497	-13.81695	31.87004	85.45176	-311.67627	261.31409	659.54083	-338.29950	235.26540	513.94971	-349.10898	126.17665	499.83636	-394.13193	188.78598	311.76645	-556.94513	190.07188	99.58263	-500.55856	101.35970	120.38122	-598.16779	117.83950	74.16673	-383.92941	190.52519	39.81348	-438.54056	144.72517	87.49946																																																																																																																															
192	1.592	-69.74530	122.14131	1753.74146	26.30280	96.76241	1633.77185	-202.99918	134.85506	1683.92700	-67.04422	105.15477	1459.17822	-298.60339	124.90800	1556.35632	-206.11946	-2.85644	1480.16602	-186.26883	241.32991	1460.78198	-267.54193	-105.08530	1473.45679	-228.02287	346.86212	1458.14734	-369.51556	29.35729	1470.94470	-362.15985	221.01180	1457.28394	-400.79974	26.90596	1380.58691	-313.96707	-137.26131	1336.65210	-388.86935	-165.29399	1158.46497	-375.22589	-68.61036	1145.98523	-298.01529	-171.32152	1087.28357	-362.37823	-172.94130	954.62140	-250.86559	-173.78928	920.07025	-255.14799	-221.34280	896.61926	-230.00201	-174.88620	875.65680	-219.60612	-156.97421	826.00348	-214.23717	-166.51120	774.59399	-233.95964	-247.08246	818.86591	-259.97437	-205.83302	754.33521	-281.81387	-154.98299	784.23993	-276.58447	379.79749	1312.13098	-327.57938	404.84784	1141.89917	-344.28101	313.84082	1111.68738	-237.82799	401.53076	1067.68604	-286.25156	433.58548	959.03387	-186.41521	412.47217	912.49365	-204.81961	454.33975	879.21558	-157.69142	413.22134	860.04932	-134.25632	390.36066	816.66028	-119.62493	395.73389	768.69421	-168.73564	470.95850	785.42285	-160.32870	442.92468	726.06329	-168.03455	382.76846	722.52533	-419.17142	110.77943	1105.16528	-229.79150	-82.81283	1047.86353	-226.18932	269.77600	1046.74255	-181.74052	-74.35828	681.30121	-84.20122	18.24481	605.33148	-115.51557	-44.74547	538.67511	-130.17343	65.02719	532.11578	-71.55608	-5.92827	326.85217	-124.58878	-44.72181	86.23820	-109.70793	58.01958	107.26995	-181.59901	4.95406	45.39317	44.56789	-2.58506	54.12979	-13.10925	31.79380	84.80087	-305.00363	259.71878	660.62427	-331.24054	235.43678	514.23151	-342.24985	126.22593	500.22522	-390.45013	188.55498	312.26071	-555.85699	190.79007	103.01720	-498.72339	102.64094	121.48523	-597.72620	118.44935	76.73419	-383.87796	190.51611	39.59119	-437.13544	145.53917	88.49731																																																																																																																															
193	1.600	-64.60318	120.00122	1755.89026	31.85417	94.85297	1633.74780	-196.99571	132.34526	1684.25781	-60.06400	103.41893	1460.65625	-292.92621	122.30949	1557.56958	-200.12605	-4.89331	1481.03430	-180.96848	239.43533	1461.74536	-261.95435	-106.56362	1473.97864	-222.31017	345.65985	1459.05103	-363.25626	28.36965	1471.07336	-356.73529	219.39680	1458.86401	-393.83096	25.03120	1381.00940	-307.90265	-138.41995	1336.71826	-381.92606	-166.26668	1158.13025	-369.22403	-69.84367	1146.07361	-290.35565	-170.92725	1086.95508	-354.86914	-174.48248	954.41248	-244.51930	-172.19894	918.43884	-247.08388	-221.66035	897.06647	-224.12863	-173.75478	873.51544	-214.42274	-158.52823	822.35742	-210.14516	-172.09334	772.57660	-226.06561	-249.84923	821.07892	-254.22386	-212.34174	753.87689	-276.20593	-160.72307	784.73834	-271.10822	378.47946	1313.92517	-323.81601	401.77090	1143.04126	-340.45712	310.75400	1112.85278	-234.15936	400.38708	1068.14026	-284.61606	431.06223	960.19812	-184.04495	409.34891	912.36017	-203.17401	453.26483	879.74219	-156.59573	412.28391	860.24902	-132.92229	389.78400	816.75226	-118.37888	395.35068	768.76593	-167.87572	469.91190	785.80573	-160.10143	442.40189	726.13379	-166.94162	381.85092	723.30878	-412.87616	109.01969	1106.34546	-223.70752	-82.51652	1048.82581	-218.35054	269.16916	1048.18518	-175.14217	-73.57281	682.26428	-78.56105	17.89623	605.63049	-108.94671	-44.95978	538.87622	-124.39193	66.07583	531.60132	-67.41275	-5.74166	326.05679	-124.34728	-44.35688	86.31044	-108.78662	57.84723	107.35872	-181.39392	4.63917	45.64709	44.42954	-4.26640	53.77927	-12.48558	31.37221	84.50970	-298.58600	258.88705	661.40399	-325.02069	234.92410	514.31207	-336.01196	126.07329	500.74426	-386.31857	188.06639	313.44797	-554.45111	191.12570	105.35534	-497.02429	103.21202	124.40997	-596.94604	118.85377	81.13488	-384.17484	190.37082	39.26995	-436.01495	145.63654	88.88500																																																																																																																															
194	1.608	-58.33316	117.11367	1756.70850	38.27321	93.18040	1634.59644	-191.16699	130.64433	1685.05090	-54.82793	100.67875	1460.70923	-286.10217	120.74158	1558.43420	-194.73155	-6.70329	1481.62378	-173.15675	238.50819	1462.36511	-255.19250	-108.16653	1474.39368	-215.58339	344.18628	1460.18494	-356.93433	27.20185	1472.21606	-349.29565	217.85382	1460.14612	-388.27017	24.30021	1381.32434	-302.14578	-140.41243	1337.21936	-374.53210	-167.89659	1158.74829	-363.11285	-72.11784	1147.51807	-282.71265	-171.25104	1087.43115	-346.67355	-175.19867	955.00385	-237.41728	-170.47507	919.23645	-238.04341	-220.34877	897.51025	-217.09531	-172.70490	872.25879	-209.26239	-160.62263	819.92493	-208.21069	-172.49725	769.83051	-219.64706	-251.48637	822.09656	-250.30827	-217.82372	754.25616	-270.67609	-165.79210	784.56482	-267.72922	378.37567	1314.91528	-319.88519	399.48904	1144.46509	-335.77185	308.71140	1114.50842	-231.03259	399.09344	1069.44238	-282.80664	428.55328	961.22992	-182.24704	408.15179	912.81659	-201.30931	450.93585	880.09912	-153.81772	412.12158	860.90662	-131.14825	389.03900	816.58008	-117.42128	395.40604	769.02002	-166.95622	468.30344	786.30237	-158.81764	440.94946	726.26624	-165.37651	380.85324	723.24817	-406.49927	108.31136	1107.55396	-216.90460	-85.58571	1049.72937	-213.26038	266.81470	1049.14417	-166.52544	-74.58234	683.75378	-72.41978	17.90743	605.38092	-103.49181	-45.56921	539.45825	-119.49586	63.95637	533.27075	-63.56892	-5.57279	325.06497	-123.83804	-44.40115	86.43372	-107.55640	57.54065	107.63638	-180.84871	4.45149	45.69210	45.15242	-5.31527	53.44103	-11.75398	31.51268	83.90158	-292.20352	257.71561	662.14734	-317.40985	235.12645	515.17560	-329.65259	124.80571	501.34375	-381.36380	188.35568	314.31787	-553.31567	192.38745	108.55881	-495.15045	103.31726	126.28381	-595.21704	119.15673	84.92680	-383.56525	190.81512	39.41584	-434.40860	146.33406	90.02893																																																																																																																															
